<svg height="512.00003pt" viewBox="0 0 512.00003 512.00003" width="512.00003pt" xmlns="http://www.w3.org/2000/svg"><path d="m245.613281 259.65625-47.378906-138.054688c-74.433594 31.367188-109.351563 117.136719-77.984375 191.574219 31.367188 74.433594 117.140625 109.351563 191.574219 77.984375 1.519531-.652344 3.019531-1.355468 4.519531-2.058594 1.324219-.601562 2.632812-1.253906 3.941406-1.902343 16.167969-8.207031 30.667969-19.351563 42.757813-32.867188l-114.449219-90.441406c-1.375-1.097656-2.410156-2.566406-2.980469-4.234375zm0 0"/><path d="m256 73.144531c-100.988281 0-182.855469 81.867188-182.855469 182.855469s81.867188 182.855469 182.855469 182.855469 182.855469-81.867188 182.855469-182.855469c-.113281-100.941406-81.914063-182.742188-182.855469-182.855469zm73.699219 329.789063c-1.5625.804687-3.164063 1.535156-4.742188 2.296875-1.921875.914062-3.796875 1.828125-5.753906 2.679687-3.765625 1.617188-7.597656 3.125-11.492187 4.46875-85.9375 29.453125-179.480469-16.339844-208.929688-102.277344-27.863281-81.300781 11.558594-170.347656 90.476562-204.375 3.082032-1.378906 6.242188-2.59375 9.425782-3.785156.75-.261718 1.445312-.621094 2.195312-.914062.097656 0 .21875 0 .320313-.042969 85.527343-30.441406 179.539062 14.21875 209.976562 99.75 27.871094 78.304687-7.101562 165.09375-81.476562 202.199219zm0 0"/><path d="m256 109.714844c-13.714844.027344-27.355469 1.992187-40.519531 5.832031l46.5625 135.664063 113.097656 89.371093c46.839844-65.675781 31.570313-156.882812-34.101563-203.722656-24.820312-17.699219-54.554687-27.191406-85.039062-27.144531zm0 0"/><path d="m246.855469 9.144531v18.285157c0 5.046874 4.09375 9.140624 9.144531 9.140624s9.144531-4.09375 9.144531-9.140624v-18.285157c0-5.050781-4.09375-9.144531-9.144531-9.144531s-9.144531 4.09375-9.144531 9.144531zm0 0"/><path d="m9.144531 246.855469c-5.050781 0-9.144531 4.09375-9.144531 9.144531s4.09375 9.144531 9.144531 9.144531h18.285157c5.046874 0 9.140624-4.09375 9.140624-9.144531s-4.09375-9.144531-9.140624-9.144531zm0 0"/><path d="m265.144531 502.855469v-18.285157c0-5.046874-4.09375-9.140624-9.144531-9.140624s-9.144531 4.09375-9.144531 9.140624v18.285157c0 5.050781 4.09375 9.144531 9.144531 9.144531s9.144531-4.09375 9.144531-9.144531zm0 0"/><path d="m502.855469 265.144531c5.050781 0 9.144531-4.09375 9.144531-9.144531s-4.09375-9.144531-9.144531-9.144531h-18.285157c-5.046874 0-9.140624 4.09375-9.140624 9.144531s4.09375 9.144531 9.140624 9.144531zm0 0"/><path d="m466.285156 54.855469c0-5.046875-4.09375-9.140625-9.144531-9.140625h-27.425781c-5.050782 0-9.144532 4.09375-9.144532 9.140625 0 5.050781 4.09375 9.144531 9.144532 9.144531h5.355468l-23.90625 23.910156c-3.632812 3.507813-3.734374 9.292969-.226562 12.925782 3.507812 3.632812 9.296875 3.734374 12.929688.226562.078124-.074219.152343-.148438.222656-.226562l23.910156-23.910157v5.359375c0 5.050782 4.09375 9.144532 9.144531 9.144532 5.046875 0 9.140625-4.09375 9.140625-9.144532zm0 0"/><path d="m466.285156 457.144531v-27.429687c0-5.050782-4.09375-9.144532-9.144531-9.144532-5.046875 0-9.140625 4.09375-9.140625 9.144532v5.359375l-23.910156-23.910157c-3.628906-3.507812-9.417969-3.40625-12.925782.222657-3.421874 3.542969-3.421874 9.164062 0 12.707031l23.90625 23.90625h-5.355468c-5.050782 0-9.144532 4.09375-9.144532 9.144531 0 5.046875 4.09375 9.140625 9.144532 9.140625h27.425781c5.050781 0 9.144531-4.09375 9.144531-9.140625zm0 0"/><path d="m54.855469 45.714844c-5.046875 0-9.140625 4.09375-9.140625 9.140625v27.429687c0 5.050782 4.09375 9.144532 9.140625 9.144532 5.050781 0 9.144531-4.09375 9.144531-9.144532v-5.359375l23.910156 23.910157c3.628906 3.507812 9.417969 3.40625 12.925782-.226563 3.421874-3.542969 3.421874-9.160156 0-12.703125l-23.910157-23.90625h5.359375c5.050782 0 9.144532-4.09375 9.144532-9.144531 0-5.046875-4.09375-9.140625-9.144532-9.140625zm0 0"/><path d="m45.714844 457.144531c0 5.046875 4.09375 9.140625 9.140625 9.140625h27.429687c5.050782 0 9.144532-4.09375 9.144532-9.140625 0-5.050781-4.09375-9.144531-9.144532-9.144531h-5.359375l23.910157-23.910156c3.507812-3.628906 3.40625-9.417969-.222657-12.925782-3.546875-3.421874-9.164062-3.421874-12.707031 0l-23.90625 23.90625v-5.355468c0-5.050782-4.09375-9.144532-9.144531-9.144532-5.046875 0-9.140625 4.09375-9.140625 9.144532zm0 0"/></svg>